# Blender v3.0.0 OBJ File: 'ёлка.blend'
# www.blender.org
mtllib ёлка.mtl
o Circle
v 0.000000 0.000000 -1.000000
v -0.866025 0.000000 -0.500000
v -0.866025 0.000000 0.500000
v 0.000000 0.000000 1.000000
v 0.866025 0.000000 0.500000
v 0.866025 0.000000 -0.500000
v 0.000000 8.963091 -0.518424
v -0.448969 8.963091 -0.259212
v -0.448969 8.963091 0.259212
v 0.000000 8.963091 0.518424
v 0.448969 8.963091 0.259212
v 0.448969 8.963091 -0.259212
v 0.618033 17.078129 -0.273160
v 0.386601 17.127136 -0.136580
v 0.386601 17.127136 0.136580
v 0.618033 17.078129 0.273160
v 0.849465 17.029121 0.136580
v 0.849465 17.029121 -0.136580
v 0.385867 21.468529 0.000000
v 2.210306 11.014925 0.673753
v -1.864007 11.379406 0.504632
v 1.885382 9.039978 4.245234
v -2.188932 9.404459 4.076114
v 0.240500 11.977573 0.579799
v -0.138637 9.673112 4.747171
v 0.379345 10.723652 1.893190
v -0.803116 11.202618 -1.997035
v -2.826486 8.267545 2.565228
v -4.008948 8.746510 -1.324996
v -0.281547 11.735135 0.061313
v -4.022263 8.869233 0.845479
v -1.465505 11.512408 0.889324
v 1.471241 11.991374 -1.922717
v -3.513040 9.056303 -1.667352
v -0.576295 9.535267 -4.479393
v -0.129623 12.523891 -0.527704
v -2.518782 9.657990 -3.510953
v -1.723866 11.512408 -0.913639
v 2.137845 11.991373 0.358856
v -0.427967 9.056303 -3.921901
v 3.433743 9.535267 -2.649406
v 0.154498 12.523890 -0.399537
v 1.666614 9.657991 -3.909718
v 0.154977 11.512408 -1.684407
v 0.632312 11.991373 2.353438
v 3.429091 9.056303 -1.780117
v 3.906427 9.535267 2.257727
v 0.482196 12.523890 0.235353
v 4.302587 9.657990 0.123674
v 2.109695 14.181148 -0.601008
v -1.041881 14.520744 1.521042
v 3.837238 12.341038 2.259139
v 0.685662 12.680634 4.381190
v 0.579276 15.078072 0.415789
v 2.595055 12.930944 3.753144
v 1.408478 13.909760 1.324992
v -1.626469 14.356025 -0.942341
v -0.626892 11.621342 3.599030
v -3.661838 12.067605 1.331698
v -0.098779 14.852185 0.314774
v -2.473745 12.181950 2.968228
v -0.530413 14.644665 1.589826
v 0.121711 15.090929 -2.141986
v -3.478583 12.356247 0.800984
v -2.826459 12.802511 -2.930828
v -0.309876 15.587090 -0.211209
v -3.749939 12.916856 -1.131667
v -1.719566 14.644665 0.379116
v 1.881484 15.090929 -0.797375
v -2.407391 12.356248 -2.594244
v 1.193658 12.802511 -3.770736
v -0.025865 15.587090 -0.271838
v -0.828452 12.916856 -3.741295
v -0.734746 14.644665 -1.236540
v 1.852411 15.090929 1.530824
v 1.670007 12.356248 -3.115670
v 4.257165 12.802511 -0.348308
v 0.570563 15.587089 0.023830
v 3.376543 12.916857 -2.168829
v 2.183423 16.602062 -0.385520
v -0.338299 16.739952 1.301864
v 3.649697 15.266590 1.914895
v 1.127976 15.404480 3.602279
v 0.921580 17.250423 0.413149
v 2.632499 15.692133 3.097382
v 1.639926 16.376675 1.152040
v -0.794277 16.546135 -0.656633
v 0.139003 14.485493 2.994866
v -2.295200 14.654953 1.186194
v 0.394299 17.035065 0.336305
v -1.357049 14.828347 2.486602
v 0.061805 16.865381 1.354550
v 0.557498 17.202890 -1.622986
v -2.164250 14.886465 0.759649
v -1.668557 15.223972 -2.217886
v 0.189161 17.601114 -0.092157
v -2.408306 15.292021 -0.786317
v -0.883037 16.788515 0.391615
v 1.955756 17.310619 -0.553903
v -1.312850 14.895290 -1.944257
v 1.525943 15.417393 -2.889775
v 0.414844 17.614761 -0.140654
v -0.086682 15.405657 -2.866259
v -0.100383 16.816910 -0.895447
v 1.932508 17.340492 1.299674
v 1.927146 15.095918 -2.362637
v 3.960037 15.619501 -0.167517
v 0.888756 17.649117 0.094260
v 3.254572 15.640983 -1.617727
v 1.434336 18.940651 -0.832649
v -0.159964 19.011768 0.948345
v 3.181299 17.993896 0.160102
v 1.101589 18.223106 2.355908
v 0.753851 19.399668 0.296326
v 2.027291 18.294949 2.264942
v 1.604301 18.773895 0.347511
v -0.587504 18.856125 -0.003214
v 1.280483 17.376640 2.043564
v -0.911321 17.458872 1.692839
v 0.511535 19.234371 0.241121
v 0.133689 17.603991 2.220156
v 0.642180 19.109400 1.013348
v -0.046634 19.352005 -1.084377
v -0.973770 17.628403 1.372687
v -1.662584 17.871006 -0.725037
v 0.225647 19.643686 0.034299
v -1.659919 17.915588 0.453593
v -0.294610 19.036037 0.707515
v 1.219603 19.454823 -0.862693
v -1.334760 17.636814 -0.668722
v 0.179453 18.055595 -2.238930
v 0.355436 19.656710 -0.073320
v -0.858260 18.024029 -1.679178
v -0.222047 19.063129 -0.391552
v 1.829983 19.483341 0.347616
v 0.622279 17.828281 -2.033511
v 2.674309 18.248493 -1.294344
v 0.741605 19.689499 -0.080852
v 1.726803 18.248619 -1.996769
v -0.626819 20.245575 -0.100576
v 1.518020 20.148699 -0.669823
v -0.630534 22.432940 -0.486834
v 1.514306 22.336060 -1.056083
v 0.524660 20.034676 0.009010
v 0.538925 22.603069 -0.449038
v 0.647645 20.141634 -0.948241
v 1.034700 20.183395 0.892020
v 0.556012 22.454098 -1.225120
v 0.916055 22.400192 0.966050
v 0.418091 19.997780 0.060272
v 0.364608 22.564390 -0.063567
vt 0.566397 0.459477
vt 0.492835 0.461451
vt 0.492835 0.465701
vt 0.566397 0.467675
vt 0.541789 0.465568
vt 0.468227 0.467542
vt 0.468227 0.471792
vt 0.541789 0.473766
vt 0.576855 0.444261
vt 0.503293 0.446235
vt 0.503293 0.450486
vt 0.576855 0.452460
vt 0.531331 0.442354
vt 0.457769 0.444328
vt 0.457769 0.448579
vt 0.531331 0.450553
vt 0.542404 0.451193
vt 0.468842 0.453167
vt 0.468842 0.457417
vt 0.542404 0.459391
vt 0.577470 0.452484
vt 0.503908 0.454458
vt 0.503908 0.458709
vt 0.577470 0.460683
vt 0.633132 0.473503
vt 0.699855 0.471495
vt 0.700078 0.469266
vt 0.632789 0.469266
vt 0.593121 0.462090
vt 0.525832 0.462090
vt 0.526055 0.464318
vt 0.592778 0.466326
vt 0.699542 0.458997
vt 0.632789 0.458997
vt 0.633012 0.461225
vt 0.699199 0.463233
vt 0.633132 0.454809
vt 0.699320 0.452801
vt 0.699542 0.450573
vt 0.632789 0.450573
vt 0.525051 0.453817
vt 0.457769 0.454823
vt 0.457769 0.457062
vt 0.525051 0.458068
vt 0.528901 0.460102
vt 0.462690 0.461108
vt 0.462690 0.463347
vt 0.528901 0.464352
vt 0.671167 0.444454
vt 0.635557 0.444454
vt 0.671097 0.446693
vt 0.590384 0.477822
vt 0.626927 0.475583
vt 0.590316 0.475583
vt 0.625894 0.448770
vt 0.589780 0.448770
vt 0.625324 0.450935
vt 0.590737 0.444711
vt 0.626281 0.442545
vt 0.590167 0.442545
vt 0.591504 0.455418
vt 0.627553 0.453250
vt 0.590942 0.453250
vt 0.628089 0.466065
vt 0.591479 0.466065
vt 0.627527 0.468233
vt 0.204091 0.277736
vt 0.298394 0.318954
vt 0.215958 0.507561
vt 0.121655 0.466343
vt 0.109787 0.236518
vt 0.027351 0.425125
vt 0.204091 0.277736
vt 0.298394 0.318954
vt 0.215958 0.507561
vt 0.121655 0.466343
vt 0.109787 0.236518
vt 0.027351 0.425125
vt 0.204091 0.277736
vt 0.298394 0.318954
vt 0.215958 0.507561
vt 0.121655 0.466343
vt 0.109787 0.236518
vt 0.027351 0.425125
vt 0.204091 0.277736
vt 0.298394 0.318954
vt 0.215958 0.507561
vt 0.121655 0.466343
vt 0.109787 0.236518
vt 0.027351 0.425125
vt 0.204091 0.277736
vt 0.298394 0.318954
vt 0.215958 0.507561
vt 0.121655 0.466343
vt 0.109787 0.236518
vt 0.027351 0.425125
vt 0.204091 0.277736
vt 0.298394 0.318954
vt 0.215958 0.507561
vt 0.121655 0.466343
vt 0.109787 0.236518
vt 0.027351 0.425125
vt 0.204091 0.277736
vt 0.298394 0.318954
vt 0.215958 0.507561
vt 0.121655 0.466343
vt 0.109787 0.236518
vt 0.027351 0.425125
vt 0.204091 0.277736
vt 0.298394 0.318954
vt 0.215958 0.507561
vt 0.121655 0.466343
vt 0.109787 0.236518
vt 0.027351 0.425125
vt 0.204091 0.277736
vt 0.298394 0.318954
vt 0.215958 0.507561
vt 0.121655 0.466343
vt 0.109787 0.236518
vt 0.027351 0.425125
vt 0.204091 0.277736
vt 0.298394 0.318954
vt 0.215958 0.507561
vt 0.121655 0.466343
vt 0.109787 0.236518
vt 0.027351 0.425125
vt 0.204091 0.277736
vt 0.298394 0.318954
vt 0.215958 0.507561
vt 0.121655 0.466343
vt 0.109787 0.236518
vt 0.027351 0.425125
vt 0.204091 0.277736
vt 0.298394 0.318954
vt 0.215958 0.507561
vt 0.121655 0.466343
vt 0.109787 0.236518
vt 0.027351 0.425125
vt 0.204091 0.277736
vt 0.298394 0.318954
vt 0.215958 0.507561
vt 0.121655 0.466343
vt 0.109787 0.236518
vt 0.027351 0.425125
vt 0.204091 0.277736
vt 0.298394 0.318954
vt 0.215958 0.507561
vt 0.121655 0.466343
vt 0.109787 0.236518
vt 0.027351 0.425125
vt 0.204091 0.277736
vt 0.298394 0.318954
vt 0.215958 0.507561
vt 0.121655 0.466343
vt 0.109787 0.236518
vt 0.027351 0.425125
vt 0.204091 0.277736
vt 0.298394 0.318954
vt 0.215958 0.507561
vt 0.121655 0.466343
vt 0.109787 0.236518
vt 0.027351 0.425125
vt 0.204091 0.277736
vt 0.298394 0.318954
vt 0.215958 0.507561
vt 0.121655 0.466343
vt 0.109787 0.236518
vt 0.027351 0.425125
vt 0.204091 0.277736
vt 0.298394 0.318954
vt 0.215958 0.507561
vt 0.121655 0.466343
vt 0.109787 0.236518
vt 0.027351 0.425125
vt 0.204091 0.277736
vt 0.298394 0.318954
vt 0.215958 0.507561
vt 0.121655 0.466343
vt 0.109787 0.236518
vt 0.027351 0.425125
vt 0.204091 0.277736
vt 0.298394 0.318954
vt 0.215958 0.507561
vt 0.121655 0.466343
vt 0.109787 0.236518
vt 0.027351 0.425125
vt 0.204091 0.277736
vt 0.298394 0.318954
vt 0.215958 0.507561
vt 0.121655 0.466343
vt 0.109787 0.236518
vt 0.027351 0.425125
vt 0.204091 0.277736
vt 0.121655 0.466343
vt 0.215958 0.507561
vt 0.298394 0.318954
vt 0.109787 0.236518
vt 0.027351 0.425125
vn 0.9989 0.0465 0.0000
vn -0.4995 0.0465 0.8651
vn -0.4995 0.0465 -0.8651
vn 0.4995 0.0465 -0.8651
vn 0.4995 0.0465 0.8651
vn -0.9989 0.0465 0.0000
vn -0.4983 0.0640 0.8646
vn -0.4983 0.0640 -0.8646
vn 0.5021 -0.0119 -0.8647
vn 0.5021 -0.0119 0.8647
vn -0.9948 0.1018 0.0000
vn 0.9988 -0.0496 0.0000
vn -1.0000 -0.0002 0.0000
vn 0.9946 0.1039 0.0000
vn -0.5038 0.0271 0.8634
vn -0.5038 0.0271 -0.8634
vn 0.5192 0.0804 -0.8509
vn 0.5192 0.0804 0.8509
vn -0.2591 0.8550 0.4492
vn 0.3679 0.7992 0.4754
vn -0.6138 0.7880 -0.0483
vn -0.4320 0.7145 0.5504
vn -0.2341 0.7880 -0.5695
vn -0.6861 0.7145 -0.1369
vn 0.3929 0.7880 -0.4741
vn -0.2013 0.7145 -0.6701
vn 0.5957 0.7880 0.1559
vn 0.5224 0.7145 -0.4655
vn 0.0574 0.8550 0.5154
vn 0.5780 0.7992 0.1650
vn -0.5231 0.7880 0.3247
vn -0.0220 0.7145 0.6993
vn -0.5260 0.7880 -0.3201
vn -0.6339 0.7145 0.2962
vn 0.0356 0.7880 -0.6147
vn -0.5592 0.7145 -0.4205
vn 0.5722 0.7880 -0.2273
vn 0.1451 0.7145 -0.6845
vn 0.0026 0.8655 0.5008
vn 0.5257 0.8372 0.1509
vn -0.5725 0.7583 0.3119
vn -0.0677 0.7233 0.6872
vn -0.5753 0.7472 -0.3328
vn -0.6783 0.6774 0.2848
vn -0.0148 0.7781 -0.6279
vn -0.6037 0.6700 -0.4320
vn 0.5207 0.8190 -0.2412
vn 0.0991 0.7106 -0.6966
vn -0.0156 0.8671 0.4980
vn 0.5029 0.8603 0.0831
vn -0.3786 0.7485 0.5444
vn 0.2430 0.7254 0.6440
vn -0.6786 0.7341 -0.0262
vn -0.4834 0.6654 0.5688
vn -0.3184 0.7744 -0.5467
vn -0.7480 0.6558 -0.1014
vn 0.3342 0.8278 -0.4507
vn -0.2478 0.7088 -0.6605
vn 0.5489 0.1449 0.8232
vn -0.0593 0.1746 0.9828
vn 0.8466 0.0249 -0.5316
vn 0.9806 0.0448 0.1909
usemtl Material
s off
f 6/1/1 12/2/1 11/3/1 5/4/1
f 4/5/2 10/6/2 9/7/2 3/8/2
f 2/9/3 8/10/3 7/11/3 1/12/3
f 1/13/4 7/14/4 12/15/4 6/16/4
f 5/17/5 11/18/5 10/19/5 4/20/5
f 3/21/6 9/22/6 8/23/6 2/24/6
f 10/25/7 16/26/7 15/27/7 9/28/7
f 8/29/8 14/30/8 13/31/8 7/32/8
f 7/33/9 13/34/9 18/35/9 12/36/9
f 11/37/10 17/38/10 16/39/10 10/40/10
f 9/41/11 15/42/11 14/43/11 8/44/11
f 12/45/12 18/46/12 17/47/12 11/48/12
f 15/49/13 19/50/13 14/51/13
f 18/52/14 19/53/14 17/54/14
f 16/55/15 19/56/15 15/57/15
f 14/58/16 19/59/16 13/60/16
f 13/61/17 19/62/17 18/63/17
f 17/64/18 19/65/18 16/66/18
f 24/67/19 21/68/19 23/69/19 25/70/19
f 20/71/20 24/67/20 25/70/20 22/72/20
f 30/73/21 27/74/21 29/75/21 31/76/21
f 26/77/22 30/73/22 31/76/22 28/78/22
f 36/79/23 33/80/23 35/81/23 37/82/23
f 32/83/24 36/79/24 37/82/24 34/84/24
f 42/85/25 39/86/25 41/87/25 43/88/25
f 38/89/26 42/85/26 43/88/26 40/90/26
f 48/91/27 45/92/27 47/93/27 49/94/27
f 44/95/28 48/91/28 49/94/28 46/96/28
f 54/97/29 51/98/29 53/99/29 55/100/29
f 50/101/30 54/97/30 55/100/30 52/102/30
f 60/103/31 57/104/31 59/105/31 61/106/31
f 56/107/32 60/103/32 61/106/32 58/108/32
f 66/109/33 63/110/33 65/111/33 67/112/33
f 62/113/34 66/109/34 67/112/34 64/114/34
f 72/115/35 69/116/35 71/117/35 73/118/35
f 68/119/36 72/115/36 73/118/36 70/120/36
f 78/121/37 75/122/37 77/123/37 79/124/37
f 74/125/38 78/121/38 79/124/38 76/126/38
f 84/127/39 81/128/39 83/129/39 85/130/39
f 80/131/40 84/127/40 85/130/40 82/132/40
f 90/133/41 87/134/41 89/135/41 91/136/41
f 86/137/42 90/133/42 91/136/42 88/138/42
f 96/139/43 93/140/43 95/141/43 97/142/43
f 92/143/44 96/139/44 97/142/44 94/144/44
f 102/145/45 99/146/45 101/147/45 103/148/45
f 98/149/46 102/145/46 103/148/46 100/150/46
f 108/151/47 105/152/47 107/153/47 109/154/47
f 104/155/48 108/151/48 109/154/48 106/156/48
f 114/157/49 111/158/49 113/159/49 115/160/49
f 110/161/50 114/157/50 115/160/50 112/162/50
f 120/163/51 117/164/51 119/165/51 121/166/51
f 116/167/52 120/163/52 121/166/52 118/168/52
f 126/169/53 123/170/53 125/171/53 127/172/53
f 122/173/54 126/169/54 127/172/54 124/174/54
f 132/175/55 129/176/55 131/177/55 133/178/55
f 128/179/56 132/175/56 133/178/56 130/180/56
f 138/181/57 135/182/57 137/183/57 139/184/57
f 134/185/58 138/181/58 139/184/58 136/186/58
f 144/187/59 141/188/59 143/189/59 145/190/59
f 140/191/60 144/187/60 145/190/60 142/192/60
f 150/193/61 151/194/61 149/195/61 147/196/61
f 146/197/62 148/198/62 151/194/62 150/193/62
